<svg width="78" height="78" viewBox="0 0 78 78" fill="none" xmlns="http://www.w3.org/2000/svg">
<path d="M38.8082 77.6164C60.2414 77.6164 77.6164 60.2414 77.6164 38.8082C77.6164 17.375 60.2414 0 38.8082 0C17.375 0 0 17.375 0 38.8082C0 60.2414 17.375 77.6164 38.8082 77.6164Z" fill="#F74543"/>
<path d="M59.8182 47.0823C59.8182 47.0259 59.8182 47.0259 59.8747 46.9694C60.7783 44.5973 61.3431 41.9993 61.3996 39.2883V38.78C61.3996 26.2982 51.29 16.1886 38.8082 16.1886C26.3265 16.1886 16.2168 26.2982 16.2168 38.78C16.2168 41.378 16.6686 43.8631 17.4593 46.1787C20.5092 55.0458 28.9245 61.4279 38.8082 61.4279C47.9012 61.4279 55.7518 56.0059 59.3664 48.2684C59.3664 48.2119 59.4229 48.2119 59.4229 48.1554C59.5358 47.8166 59.7053 47.4777 59.8182 47.0823ZM57.7285 39.3448V38.7235H57.1072V39.3448H55.6953V38.7235H55.074V39.3448H53.6621V38.7235H53.0408V39.3448H51.4029V40.9826H41.0673V38.3282H45.9245V36.2385C46.3198 36.1255 46.6587 35.8431 46.8282 35.4478H56.9378C57.1072 36.1255 57.672 36.6903 58.3498 36.8032C58.4063 37.481 58.4627 38.1022 58.4627 38.78V39.2883H57.7285V39.3448ZM38.8082 19.1255C47.7883 19.1255 55.3564 25.1687 57.7285 33.358C57.672 33.4145 57.6156 33.4145 57.5591 33.471L53.6621 29.6869V29.5175H41.2933V25.8464H38.2434V29.5175H36.8315V25.8464H33.7816V29.5175H32.3697V25.8464H29.3198V29.5175H26.4394C26.3265 28.9527 25.7617 28.5009 25.1404 28.5009C24.4062 28.5009 23.8414 29.1222 23.8414 29.8564C23.8414 30.4776 24.2932 30.986 24.858 31.1554V33.0192H36.0972C36.2102 33.584 36.775 34.0358 37.3962 34.0358C38.1305 34.0358 38.6952 33.4145 38.6952 32.6803C38.6952 31.9461 38.1305 31.3248 37.3962 31.3248C36.775 31.3248 36.2667 31.7767 36.0972 32.3414H25.4228V31.0989C25.9311 30.986 26.27 30.5906 26.3829 30.1388H44.1172V31.4943H51.6288V30.1388H53.2667L57.2202 33.9228C57.0508 34.2052 56.9378 34.4876 56.9378 34.8265H46.9411C46.8846 34.1487 46.3198 33.584 45.6421 33.584C44.9079 33.584 44.3431 34.2052 44.3431 34.9394C44.3431 35.5607 44.7949 36.069 45.3597 36.2385V37.7069H35.363C35.1936 35.6737 33.4992 34.0358 31.4095 34.0358C29.3198 34.0358 27.6255 35.6737 27.456 37.7069H26.4394V36.2949H24.4062V35.2783H19.549V37.5375H24.4062V36.9162H25.8181V39.3448H24.4062V38.7235H19.549V40.9826H24.4062V39.966H26.4394V38.3282H27.456C27.6255 40.3614 29.3198 41.9993 31.4095 41.9993C33.4992 41.9993 35.1936 40.3614 35.363 38.3282H40.4461V41.6039H51.4029V44.0325H38.6388C38.6099 43.543 38.395 43.0831 38.0379 42.7471C37.6809 42.4111 37.2088 42.2243 36.7185 42.2252C36.2282 42.2243 35.7561 42.4111 35.3991 42.7471C35.042 43.0831 34.8271 43.543 34.7982 44.0325H27.2301C27.1172 43.4677 26.5524 43.0159 25.9311 43.0159C25.1969 43.0159 24.6321 43.6371 24.6321 44.3714C24.6321 45.1056 25.1969 45.7268 25.9311 45.7268C26.5524 45.7268 27.0607 45.275 27.2301 44.7102H34.8547C35.0806 45.5574 35.8148 46.1222 36.7185 46.1222C37.6222 46.1222 38.3564 45.5009 38.5823 44.7102H42.5358V45.8398H43.9478V44.7102H51.4594V47.1388H20.961C19.7749 44.5973 19.1537 41.8298 19.1537 38.8365C19.0972 27.9361 27.9079 19.1255 38.8082 19.1255V19.1255ZM38.8082 58.5475C31.1271 58.5475 24.4627 54.1421 21.2434 47.7036H37.8481V51.3182H40.8414V47.7036H42.084V51.3182H45.1338V47.7036H46.3763V51.3182H49.4262V47.7036H51.4594V49.3415H53.0973V49.9627H53.7185V49.3415H55.1305V49.9063C51.5159 55.1023 45.5856 58.5475 38.8082 58.5475Z" fill="#26495B"/>
</svg>
