<svg width="44" height="50" viewBox="0 0 44 50" fill="none" xmlns="http://www.w3.org/2000/svg">
<path d="M42.7939 37.402L21.5685 49.6569L0.342964 37.402V12.8922L21.5685 0.637257L42.7939 12.8922V37.402Z" fill="#232323"/>
<path d="M32.8006 29.5084C32.8006 29.4776 32.8006 29.4776 32.8314 29.4468C33.3238 28.1543 33.6315 26.7387 33.6623 25.2616V24.9846C33.6623 18.1836 28.1538 12.6751 21.3528 12.6751C14.5517 12.6751 9.04321 18.1836 9.04321 24.9846C9.04321 26.4002 9.2894 27.7543 9.72024 29.016C11.382 33.8475 15.9673 37.3249 21.3528 37.3249C26.3073 37.3249 30.5849 34.3706 32.5544 30.1546C32.5544 30.1238 32.5852 30.1238 32.5852 30.0931C32.6468 29.9084 32.7391 29.7238 32.8006 29.5084ZM31.662 25.2924V24.9538H31.3235V25.2924H30.5541V24.9538H30.2156V25.2924H29.4463V24.9538H29.1078V25.2924H28.2153V26.1848H22.5837V24.7384H25.2303V23.5998C25.4457 23.5382 25.6303 23.3844 25.7226 23.169H31.2312C31.3235 23.5382 31.6312 23.846 32.0005 23.9075C32.0313 24.2768 32.0621 24.6153 32.0621 24.9846V25.2616H31.662V25.2924ZM21.3528 14.2753C26.2458 14.2753 30.3695 17.5681 31.662 22.0303C31.6312 22.0611 31.6004 22.0611 31.5697 22.0919L29.4463 20.03V19.9377H22.7068V17.9374H21.045V19.9377H20.2757V17.9374H18.6139V19.9377H17.8445V17.9374H16.1827V19.9377H14.6133C14.5517 19.63 14.244 19.3838 13.9055 19.3838C13.5054 19.3838 13.1977 19.7223 13.1977 20.1223C13.1977 20.4609 13.4439 20.7378 13.7516 20.8301V21.8457H19.8756C19.9372 22.1534 20.2449 22.3996 20.5834 22.3996C20.9835 22.3996 21.2912 22.0611 21.2912 21.661C21.2912 21.261 20.9835 20.9225 20.5834 20.9225C20.2449 20.9225 19.9679 21.1687 19.8756 21.4764H14.0594V20.7994C14.3363 20.7378 14.521 20.5224 14.5825 20.2762H24.2455V21.0148H28.3384V20.2762H29.2309L31.385 22.3381C31.2927 22.4919 31.2312 22.6458 31.2312 22.8304H25.7842C25.7534 22.4612 25.4457 22.1534 25.0764 22.1534C24.6763 22.1534 24.3686 22.4919 24.3686 22.892C24.3686 23.2305 24.6148 23.5075 24.9225 23.5998V24.3999H19.4755C19.3832 23.2921 18.46 22.3996 17.3214 22.3996C16.1827 22.3996 15.2595 23.2921 15.1672 24.3999H14.6133V23.6306H13.5054V23.0766H10.8589V24.3076H13.5054V23.9691H14.2748V25.2924H13.5054V24.9538H10.8589V26.1848H13.5054V25.6309H14.6133V24.7384H15.1672C15.2595 25.8463 16.1827 26.7387 17.3214 26.7387C18.46 26.7387 19.3832 25.8463 19.4755 24.7384H22.2452V26.5233H28.2153V27.8466H21.2604C21.2447 27.5799 21.1276 27.3293 20.933 27.1462C20.7385 26.9631 20.4813 26.8614 20.2141 26.8618C19.947 26.8614 19.6897 26.9631 19.4952 27.1462C19.3007 27.3293 19.1835 27.5799 19.1678 27.8466H15.0441C14.9826 27.5388 14.6748 27.2927 14.3363 27.2927C13.9363 27.2927 13.6285 27.6312 13.6285 28.0312C13.6285 28.4313 13.9363 28.7698 14.3363 28.7698C14.6748 28.7698 14.9518 28.5236 15.0441 28.2159H19.1986C19.3217 28.6775 19.7217 28.9852 20.2141 28.9852C20.7065 28.9852 21.1066 28.6467 21.2297 28.2159H23.3838V28.8313H24.1532V28.2159H28.2461V29.5391H11.6282C10.982 28.1543 10.6435 26.6464 10.6435 25.0154C10.6127 19.076 15.4134 14.2753 21.3528 14.2753V14.2753ZM21.3528 35.7555C17.1675 35.7555 13.5362 33.3551 11.7821 29.8469H20.8296V31.8164H22.4606V29.8469H23.1376V31.8164H24.7994V29.8469H25.4765V31.8164H27.1382V29.8469H28.2461V30.7393H29.1385V31.0778H29.4771V30.7393H30.2464V31.0471C28.2769 33.8783 25.0456 35.7555 21.3528 35.7555Z" fill="white"/>
</svg>
