<svg width="80" height="80" viewBox="0 0 80 80" fill="none" xmlns="http://www.w3.org/2000/svg">
<path d="M76.3979 54.1316C76.3979 54.0327 76.3979 54.0327 76.4968 53.9337C78.0802 49.7774 79.0698 45.2252 79.1688 40.475V39.5844C79.1688 17.714 61.4548 0 39.5844 0C17.714 0 0 17.714 0 39.5844C0 44.1366 0.791688 48.4909 2.17714 52.5483C7.52103 68.0851 22.2662 79.2677 39.5844 79.2677C55.5171 79.2677 69.2727 69.7675 75.6062 56.2098C75.6062 56.1109 75.7052 56.1109 75.7052 56.0119C75.9031 55.4181 76.2 54.8244 76.3979 54.1316ZM72.7363 40.574V39.4854H71.6478V40.574H69.1737V39.4854H68.0852V40.574H65.6111V39.4854H64.5226V40.574H61.6527V43.4439H43.5428V38.7927H52.0535V35.1311C52.7462 34.9332 53.34 34.4384 53.6369 33.7457H71.3509C71.6478 34.9332 72.6374 35.9228 73.8249 36.1208C73.9239 37.3083 74.0228 38.3969 74.0228 39.5844V40.475H72.7363V40.574ZM39.5844 5.14597C55.3192 5.14597 68.58 15.7348 72.7363 30.0841C72.6374 30.1831 72.5384 30.1831 72.4394 30.2821L65.6111 23.6517V23.3548H43.9387V16.9223H38.5948V23.3548H36.1208V16.9223H30.7769V23.3548H28.3028V16.9223H22.9589V23.3548H17.9119C17.714 22.3652 16.7244 21.5735 15.6358 21.5735C14.3493 21.5735 13.3597 22.6621 13.3597 23.9486C13.3597 25.0371 14.1514 25.9278 15.141 26.2247V29.4904H34.8343C35.0322 30.48 36.0218 31.2717 37.1104 31.2717C38.3969 31.2717 39.3865 30.1831 39.3865 28.8966C39.3865 27.6101 38.3969 26.5215 37.1104 26.5215C36.0218 26.5215 35.1311 27.3132 34.8343 28.3028H16.1306V26.1257C17.0213 25.9278 17.6151 25.235 17.813 24.4434H48.8867V26.8184H62.0485V24.4434H64.9184L71.8457 31.0737C71.5488 31.5685 71.3509 32.0634 71.3509 32.6571H53.8348C53.7358 31.4696 52.7462 30.48 51.5587 30.48C50.2722 30.48 49.2826 31.5685 49.2826 32.855C49.2826 33.9436 50.0743 34.8343 51.0639 35.1311V37.7041H33.5478C33.2509 34.1415 30.2821 31.2717 26.6205 31.2717C22.9589 31.2717 19.9901 34.1415 19.6932 37.7041H17.9119V35.2301H14.3493V33.4488H5.8387V37.4072H14.3493V36.3187H16.8234V40.574H14.3493V39.4854H5.8387V43.4439H14.3493V41.6626H17.9119V38.7927H19.6932C19.9901 42.3553 22.9589 45.2252 26.6205 45.2252C30.2821 45.2252 33.2509 42.3553 33.5478 38.7927H42.4543V44.5324H61.6527V48.7878H39.2875C39.237 47.9301 38.8603 47.1243 38.2347 46.5355C37.6091 45.9467 36.7819 45.6195 35.9228 45.621C35.0637 45.6195 34.2366 45.9467 33.611 46.5355C32.9854 47.1243 32.6087 47.9301 32.5582 48.7878H19.2974C19.0995 47.7981 18.1099 47.0065 17.0213 47.0065C15.7348 47.0065 14.7452 48.095 14.7452 49.3815C14.7452 50.668 15.7348 51.7566 17.0213 51.7566C18.1099 51.7566 19.0005 50.9649 19.2974 49.9753H32.6571C33.053 51.4597 34.3395 52.4493 35.9228 52.4493C37.5062 52.4493 38.7927 51.3607 39.1885 49.9753H46.1158V51.9545H48.5898V49.9753H61.7517V54.2306H8.31272C6.23454 49.7774 5.14597 44.9283 5.14597 39.6833C5.04701 20.5839 20.4849 5.14597 39.5844 5.14597V5.14597ZM39.5844 74.2207C26.1257 74.2207 14.4483 66.5018 8.80753 55.2202H37.9021V61.5537H43.147V55.2202H45.3241V61.5537H50.668V55.2202H52.8452V61.5537H58.1891V55.2202H61.7517V58.0901H64.6215V59.1787H65.7101V58.0901H68.1841V59.0797C61.8506 68.1841 51.4597 74.2207 39.5844 74.2207Z" fill="#232323"/>
</svg>
