<svg width="78" height="78" viewBox="0 0 78 78" fill="none" xmlns="http://www.w3.org/2000/svg">
<path d="M38.8082 77.6164C60.2414 77.6164 77.6164 60.2414 77.6164 38.8082C77.6164 17.375 60.2414 0 38.8082 0C17.375 0 0 17.375 0 38.8082C0 60.2414 17.375 77.6164 38.8082 77.6164Z" fill="#6A625B"/>
<path d="M57.4317 46.1471C57.4317 46.0968 57.4317 46.0968 57.482 46.0465C58.2863 43.9354 58.7889 41.6231 58.8392 39.2104V38.758C58.8392 27.6492 49.8416 18.6516 38.7328 18.6516C27.6241 18.6516 18.6265 27.6492 18.6265 38.758C18.6265 41.0702 19.0286 43.2819 19.7323 45.3428C22.4467 53.2345 29.9363 58.9146 38.7328 58.9146C46.8256 58.9146 53.8126 54.0891 57.0296 47.2026C57.0296 47.1524 57.0799 47.1524 57.0799 47.1021C57.1804 46.8005 57.3312 46.4989 57.4317 46.1471ZM55.5719 39.2606V38.7077H55.019V39.2606H53.7623V38.7077H53.2094V39.2606H51.9528V38.7077H51.3998V39.2606H49.9421V40.7183H40.7435V38.3558H45.0663V36.496C45.4182 36.3955 45.7198 36.1441 45.8706 35.7923H54.8682C55.019 36.3955 55.5216 36.8981 56.1248 36.9987C56.1751 37.6019 56.2254 38.1548 56.2254 38.758V39.2104H55.5719V39.2606ZM38.7328 21.2654C46.7251 21.2654 53.4607 26.6439 55.5719 33.9324C55.5216 33.9827 55.4714 33.9827 55.4211 34.033L51.9528 30.6652V30.5144H40.9445V27.2471H38.2302V30.5144H36.9735V27.2471H34.2592V30.5144H33.0025V27.2471H30.2882V30.5144H27.7246C27.6241 30.0117 27.1214 29.6096 26.5685 29.6096C25.915 29.6096 25.4124 30.1625 25.4124 30.816C25.4124 31.3689 25.8145 31.8213 26.3171 31.9721V33.6308H36.3201C36.4206 34.1335 36.9233 34.5356 37.4762 34.5356C38.1296 34.5356 38.6323 33.9827 38.6323 33.3293C38.6323 32.6758 38.1296 32.1229 37.4762 32.1229C36.9233 32.1229 36.4709 32.525 36.3201 33.0277H26.8198V31.9218C27.2722 31.8213 27.5738 31.4694 27.6743 31.0673H43.4578V32.2737H50.1432V31.0673H51.6009L55.1195 34.4351C54.9687 34.6864 54.8682 34.9378 54.8682 35.2394H45.9711C45.9208 34.6362 45.4182 34.1335 44.815 34.1335C44.1615 34.1335 43.6589 34.6864 43.6589 35.3399C43.6589 35.8928 44.061 36.3452 44.5637 36.496V37.8029H35.6666C35.5158 35.9933 34.0078 34.5356 32.148 34.5356C30.2882 34.5356 28.7802 35.9933 28.6294 37.8029H27.7246V36.5463H25.915V35.6415H21.5922V37.6521H25.915V37.0992H27.1717V39.2606H25.915V38.7077H21.5922V40.7183H25.915V39.8136H27.7246V38.3558H28.6294C28.7802 40.1654 30.2882 41.6231 32.148 41.6231C34.0078 41.6231 35.5158 40.1654 35.6666 38.3558H40.1905V41.2713H49.9421V43.4327H38.582C38.5564 42.9971 38.365 42.5878 38.0473 42.2887C37.7295 41.9896 37.3094 41.8234 36.873 41.8242C36.4366 41.8234 36.0165 41.9896 35.6987 42.2887C35.3809 42.5878 35.1896 42.9971 35.1639 43.4327H28.4283C28.3278 42.93 27.8251 42.5279 27.2722 42.5279C26.6187 42.5279 26.1161 43.0808 26.1161 43.7343C26.1161 44.3877 26.6187 44.9407 27.2722 44.9407C27.8251 44.9407 28.2775 44.5385 28.4283 44.0359H35.2142C35.4153 44.7899 36.0687 45.2925 36.873 45.2925C37.6772 45.2925 38.3307 44.7396 38.5318 44.0359H42.0504V45.0412H43.307V44.0359H49.9924V46.1973H22.8488C21.7932 43.9354 21.2403 41.4723 21.2403 38.8082C21.19 29.1069 29.0315 21.2654 38.7328 21.2654V21.2654ZM38.7328 56.351C31.8967 56.351 25.9653 52.4303 23.1001 46.7H37.8783V49.917H40.5424V46.7H41.6482V49.917H44.3626V46.7H45.4685V49.917H48.1828V46.7H49.9924V48.1577H51.4501V48.7106H52.003V48.1577H53.2597V48.6603C50.0427 53.2848 44.7647 56.351 38.7328 56.351Z" fill="#90B97F"/>
</svg>
